# xmcd
#
# Track frame offsets: 
#        150
#        6697
#        25580
#        45867
#        67077
#        88275
#        106135
#        124057
#        150102
#        167552
#        172832
#
# Disc length: 2563 seconds
#
# Revision: 1
# Processed by: cddbd v1.5.2PL0 Copyright (c) Steve Scherf et al.
# Submitted via: ExactAudioCopyFreeDBPlugin 1.0
#
DISCID=7a0a010b
DTITLE=Recydywa - Równowaga strachu
DYEAR=1988
DGENRE=Blues
TTITLE0=For The...
TTITLE1=Milość bez pardonu
TTITLE2=Za dużo wódki
TTITLE3=Nie fair blues
TTITLE4=Wysoki sądzie
TTITLE5=PKP
TTITLE6=Równowaga strachu
TTITLE7=Fizyka stałych ciał
TTITLE8=Nasze boogie
TTITLE9=Final cut
TTITLE10=Nasze boogie (live, Jarocin' 88)
EXTD=YEAR: 1988
EXTT0=
EXTT1=
EXTT2=
EXTT3=
EXTT4=
EXTT5=
EXTT6=
EXTT7=
EXTT8=
EXTT9=
EXTT10=
PLAYORDER=
